<?xml version="1.0" encoding="utf-8"?>
<svg width="78" height="78" viewBox="0 0 78 78" fill="none" xmlns="http://www.w3.org/2000/svg">
  <defs>
    <clipPath id="clip_path_1">
      <rect width="78" height="78" />
    </clipPath>
  </defs>
  <g clip-path="url(#clip_path_1)">
    <path d="M46.5075 0.584996L49.4325 1.235L51.805 2.08L53.7225 3.055L55.185 4.095L56.29 5.2L57.1025 6.305L57.6225 7.37749L57.9475 8.3525L58.0775 9.1975L58.1425 9.8475L58.11 10.27L58.11 27.625L57.9475 29.6725L57.525 31.46L56.8425 32.955L55.9975 34.19L55.0225 35.1975L53.95 36.01L52.8125 36.6275L51.675 37.0825L50.6025 37.4075L49.6275 37.635L48.7825 37.765L48.1 37.83L28.6975 37.83L26.455 37.9925L24.5375 38.4475L22.9125 39.1625L21.58 40.04L20.5075 41.08L19.63 42.2175L18.98 43.3875L18.4925 44.59L18.1675 45.7275L17.94 46.7675L17.81 47.645L17.745 48.3275L17.745 58.2725L10.4975 58.2725L9.815 58.175L8.905 57.9475L7.865 57.5575L6.7275 56.9725L5.5575 56.1275L4.3875 54.9575L3.25 53.4625L2.21 51.545L1.3 49.1725L0.6175 46.3125L0.1625 42.9L0 38.9025L0.195 34.9375L0.715 31.5575L1.495 28.73L2.535 26.4225L3.705 24.57L5.005 23.14L6.37 22.0675L7.735 21.2875L9.035 20.7675L10.205 20.4425L11.245 20.28L12.025 20.2475L12.545 20.2475L12.74 20.28L39.26 20.28L39.26 17.5825L20.28 17.5825L20.2475 8.645L20.1825 7.4425L20.345 6.3375L20.7025 5.33L21.255 4.42L22.0675 3.575L23.075 2.8275L24.31 2.1775L25.74 1.5925L27.3975 1.105L29.2825 0.715L31.3625 0.39L33.67 0.195L36.1725 0.065L38.9025 0L43.03 0.1625L46.5075 0.584996ZM26.0325 7.02L25.285 8.0925L25.025 9.425L25.285 10.7575L26.0325 11.8625L27.105 12.5775L28.4375 12.87L29.77 12.5775L30.8425 11.8625L31.59 10.7575L31.85 9.425L31.59 8.0925L30.8425 7.02L29.77 6.305L28.4375 6.0125L27.105 6.305L26.0325 7.02ZM68.575 19.8575L69.485 20.0525L70.525 20.4425L71.6625 21.0275L72.8325 21.905L74.0025 23.0425L75.14 24.57L76.18 26.4875L77.09 28.86L77.7725 31.72L78.2275 35.1L78.39 39.0975L78.195 43.095L77.675 46.475L76.895 49.27L75.855 51.5775L74.685 53.43L73.385 54.8925L72.02 55.965L70.655 56.745L69.355 57.265L68.185 57.5575L67.145 57.72L66.365 57.785L65.845 57.7525L39.13 57.7525L39.13 60.4175L58.11 60.4175L58.1425 69.3875L58.2075 70.5575L58.045 71.6625L57.6875 72.67L57.135 73.6125L56.3225 74.425L55.315 75.205L54.08 75.855L52.65 76.4075L50.9925 76.895L49.1075 77.3175L47.0275 77.61L44.72 77.8375L42.2175 77.9675L39.4875 78L35.36 77.87L31.8825 77.415L28.9575 76.765L26.585 75.9525L24.6675 74.9775L23.205 73.905L22.1 72.8L21.2875 71.695L20.7675 70.6225L20.4425 69.6475L20.3125 68.835L20.2475 68.185L20.28 67.7625L20.28 50.4075L20.4425 48.3275L20.865 46.5725L21.5475 45.0775L22.3925 43.8425L23.3675 42.8025L24.44 42.0225L25.5775 41.3725L26.715 40.9175L27.7875 40.5925L28.7625 40.3975L29.6075 40.2675L30.29 40.2025L30.7125 40.17L49.6925 40.17L51.935 40.0075L53.8525 39.5525L55.4775 38.87L56.81 37.96L57.8825 36.92L58.76 35.7825L59.41 34.6125L59.8975 33.4425L60.2225 32.305L60.45 31.265L60.58 30.355L60.645 29.6725L60.645 19.7275L67.4375 19.7275L67.8925 19.76L68.575 19.8575ZM47.5475 66.17L46.8 67.2425L46.54 68.575L46.8 69.9075L47.5475 70.98L48.62 71.7275L49.9525 71.9875L51.285 71.7275L52.3575 70.98L53.105 69.9075L53.365 68.575L53.105 67.2425L52.3575 66.17L51.285 65.4225L49.9525 65.1625L48.62 65.4225L47.5475 66.17Z" fill="#00E5A4" transform="translate(-0.195 0)" />
  </g>
</svg>