<?xml version="1.0" encoding="utf-8"?>
<svg width="80" height="80" viewBox="0 0 80 80" fill="none" xmlns="http://www.w3.org/2000/svg">
  <g>
    <path d="M70.5383 39.4C70.5299 34.6811 67.3429 30.5608 62.778 29.3666C62.778 29.3666 72.7383 0 72.7383 0L23.3817 0C23.3817 0 33.3683 29.46 33.3683 29.46C28.94 30.7508 25.8935 34.8074 25.8883 39.42C25.8883 42.8967 27.6217 45.9767 30.265 47.8733C29.2016 49.3724 27.9912 50.7616 26.6516 52.02C24.1876 54.3668 21.3042 56.2292 18.1516 57.51C15.3716 55.6333 14.1683 52.3233 15.255 49.3567C20.1416 47.8388 23.1898 42.9826 22.4324 37.9221C21.675 32.8616 17.3385 29.1106 12.2217 29.09C6.49382 29.0974 1.85233 33.7388 1.84499 39.4667C1.84499 42.2933 3.00165 44.8867 4.85499 46.74C4.69499 47.0633 4.53165 47.39 4.36832 47.7367C2.81832 50.9333 1.05832 54.5467 0.384987 58.6C-0.958347 66.7067 1.24165 73.2133 6.54832 76.8967C9.42042 78.9223 12.8504 80.0066 16.365 80C22.455 80 28.6383 76.9433 34.615 73.9767C38.8783 71.87 43.2783 69.67 47.6083 68.6033C49.2083 68.21 50.875 67.98 52.635 67.7233C56.2017 67.2133 59.885 66.6833 63.195 64.7567C67.0213 62.564 69.6834 58.7929 70.4683 54.4533C71.0483 51.14 70.4683 47.8067 68.9883 44.8867C69.9817 43.2867 70.5383 41.4133 70.5383 39.3967C70.5383 39.3967 70.5383 39.4 70.5383 39.4ZM66.0217 39.4C66.0217 42.6167 63.405 45.2333 60.1883 45.2333C57.7057 45.2264 55.4984 43.6515 54.6843 41.306C53.8703 38.9606 54.6271 36.3569 56.5717 34.8133C56.5717 34.8133 56.595 34.79 56.595 34.79C56.7817 34.65 56.9883 34.51 57.195 34.3733C57.195 34.3733 57.2217 34.3733 57.2217 34.35C57.315 34.3033 57.405 34.2333 57.4983 34.1833C57.5217 34.1833 57.545 34.1633 57.5683 34.1633C57.6617 34.1167 57.7783 34.07 57.8917 34.0233C58.0083 33.9767 58.125 33.9333 58.2183 33.8867C58.2416 33.8867 58.2617 33.8633 58.285 33.8633C58.3783 33.84 58.4717 33.7933 58.565 33.77C58.5883 33.77 58.6317 33.7467 58.6583 33.7467C58.7717 33.7233 58.865 33.7 58.9817 33.68C58.9817 33.68 59.005 33.68 59.005 33.68C59.005 33.68 59.3517 33.6067 59.3517 33.6067C59.375 33.6067 59.4183 33.6067 59.445 33.5833C59.5383 33.5833 59.6283 33.56 59.7217 33.56C59.7217 33.56 59.8383 33.56 59.8383 33.56C59.955 33.56 60.0717 33.5367 60.2083 33.5367C60.2083 33.5367 60.5083 33.5367 60.5083 33.5367C60.6017 33.5367 60.675 33.5367 60.765 33.56C60.765 33.56 60.8117 33.56 60.8117 33.56C60.995 33.5833 61.1816 33.6067 61.3683 33.6533C64.0779 34.2339 66.0157 36.6256 66.0217 39.3967C66.0217 39.3967 66.0217 39.4 66.0217 39.4ZM29.845 4.63333L66.2783 4.63333C66.2783 4.63333 57.915 29.3 57.915 29.3C57.5683 29.3667 57.2216 29.4833 56.875 29.6C56.875 29.6 48.075 11.65 48.075 11.65C48.075 11.65 39.2483 29.4833 39.2483 29.4833C38.9016 29.37 38.5283 29.3 38.1583 29.23C38.1583 29.23 29.845 4.63 29.845 4.63L29.845 4.63333ZM46.405 37.3833C45.9789 35.2453 44.8839 33.2981 43.2783 31.8233C43.2783 31.8233 48.0716 22.1433 48.0716 22.1433C48.0716 22.1433 52.9116 32.0333 52.9116 32.0333C51.4783 33.4667 50.435 35.3 50.0183 37.3833C50.0183 37.3833 46.4016 37.3833 46.4016 37.3833C46.4016 37.3833 46.405 37.3833 46.405 37.3833ZM34.8017 33.7233C34.915 33.7 35.0083 33.6767 35.125 33.6567C35.125 33.6567 35.1917 33.6567 35.1917 33.6567C35.2883 33.63 35.3783 33.63 35.4716 33.6067C35.4716 33.6067 35.565 33.6067 35.565 33.6067C35.6583 33.6067 35.7283 33.5833 35.8183 33.5833C35.8183 33.5833 36.7216 33.5833 36.7216 33.5833C36.815 33.5833 36.885 33.6067 36.955 33.6067C37.0016 33.6067 37.0216 33.6067 37.0716 33.63C37.1616 33.6533 37.2316 33.6533 37.325 33.6767C37.3483 33.6767 37.3716 33.6767 37.4183 33.7C37.4183 33.7 37.7416 33.7667 37.7416 33.7667C37.7416 33.7667 37.765 33.7667 37.765 33.7667C37.8583 33.7933 37.9516 33.8167 38.0416 33.8633C38.065 33.8633 38.0883 33.8867 38.135 33.8867C38.205 33.91 38.2983 33.9333 38.3683 33.9767C38.3916 33.9767 38.415 34 38.435 34C38.5283 34.0467 38.6216 34.07 38.715 34.1167C38.715 34.1167 38.7383 34.1167 38.7383 34.1167C38.8453 34.1571 38.9463 34.2121 39.0383 34.28C39.0383 34.28 39.0616 34.28 39.0616 34.28C39.155 34.3267 39.2483 34.3933 39.3416 34.44C39.365 34.44 39.365 34.4633 39.385 34.4633C39.4783 34.51 39.5516 34.58 39.6416 34.6267C39.6416 34.6267 39.665 34.65 39.665 34.65C39.9416 34.8567 40.1983 35.09 40.4516 35.32C40.4516 35.32 40.475 35.3433 40.475 35.3433C41.5072 36.4306 42.0803 37.8741 42.075 39.3733C41.9686 42.5201 39.3869 45.016 36.2383 45.016C33.0898 45.016 30.508 42.5201 30.4017 39.3733C30.3941 36.7023 32.2099 34.3705 34.8015 33.7234C34.8015 33.7234 34.8017 33.7233 34.8017 33.7233ZM12.0083 33.56C15.2283 33.56 17.845 36.18 17.845 39.3967C17.845 42.6133 15.2283 45.2333 12.0117 45.2333C8.79498 45.2333 6.17165 42.6167 6.17165 39.4C6.17165 36.1833 8.79165 33.56 12.0083 33.56C12.0083 33.56 12.0083 33.56 12.0083 33.56ZM65.885 53.6433C65.3516 56.6435 63.5089 59.2499 60.8583 60.7533C58.3316 62.2133 55.2283 62.6767 51.9616 63.14C50.1249 63.3753 48.3005 63.699 46.4949 64.11C41.6783 65.2933 37.0483 67.61 32.5549 69.8333C26.8083 72.68 21.3883 75.3667 16.3649 75.3667C13.789 75.3827 11.2746 74.5796 9.18493 73.0733C4.08826 69.5533 4.3416 62.9533 4.94493 59.34C5.5016 55.9567 7.0516 52.7867 8.53493 49.75C8.62826 49.5667 8.69826 49.4033 8.7916 49.2167C9.29826 49.4033 9.8316 49.5433 10.3883 49.6367C9.50826 54.5467 12.0083 59.6167 16.8749 62.12C16.8749 62.12 17.7549 62.5833 17.7549 62.5833C17.7549 62.5833 18.7016 62.2367 18.7016 62.2367C22.7549 60.8 26.5083 58.46 29.8216 55.3333C31.6513 53.6273 33.2685 51.7067 34.6383 49.6133C35.1716 49.7033 35.7049 49.7267 36.2383 49.7267C40.9533 49.7157 45.0699 46.5311 46.2649 41.97C46.2649 41.97 50.1549 41.97 50.1549 41.97C51.3423 46.539 55.4675 49.7281 60.1883 49.7267C62.1083 49.7267 63.8883 49.1933 65.4216 48.2933C66.0216 50.0267 66.2083 51.8367 65.8849 53.6433C65.8849 53.6433 65.885 53.6433 65.885 53.6433Z" fill="#00E5A4" transform="translate(3.632 0)" />
  </g>
</svg>