<?xml version="1.0" encoding="utf-8"?>
<svg width="84" height="84" viewBox="0 0 84 84" fill="none" xmlns="http://www.w3.org/2000/svg">
  <path d="M5.33594 0C2.41406 0 0 2.41406 0 5.33594L0 78.6641C0 81.5859 2.41406 84 5.33594 84L78.6641 84C81.5859 84 84 81.5938 84 78.6641L84 5.33594C84 2.41406 81.5938 0 78.6641 0L5.33594 0ZM5.33594 4L78.6641 4C79.4062 4 80 4.59375 80 5.33594L80 78.6641C80 79.4062 79.4062 80 78.6641 80L5.33594 80C4.59375 80 4 79.4062 4 78.6641L4 5.33594C4 4.59375 4.59375 4 5.33594 4L5.33594 4ZM38 38L38 63.1484C38 67.0078 36.5391 68 34 68C31.3438 68 29.5 66.3438 28.2813 64.1953L22 68C23.8203 71.8516 28.2813 76 34.4688 76C41.3125 76 46 72.3594 46 64.3672L46 38L38 38ZM62.9063 38C56.0938 38 51.7266 42.3594 51.7266 48.0859C51.7266 54.2969 55.3906 57.2344 60.8984 59.5781L62.8047 60.3984C66.2813 61.9219 68 62.8516 68 65.4688C68 67.6484 66.3438 69.2266 63.1797 69.2266C59.4141 69.2266 57.6328 66.6719 56 64L50 68C52.2422 72.4297 56.2656 76 63.3516 76C70.6016 76 76 72.2344 76 65.3672C76 58.9922 72.3437 56.1563 65.8516 53.375L63.9453 52.5625C60.6719 51.1406 59.25 50.2188 59.25 47.9297C59.25 46.0781 60.6719 44.6563 62.9063 44.6563C65.1016 44.6563 66.5078 45.5859 67.8125 47.9297L73.7578 44.1172C71.25 39.6875 67.7578 38 62.9063 38L62.9063 38Z" fill="#00E5A4" fill-rule="evenodd" />
</svg>