<?xml version="1.0" encoding="utf-8"?>
<svg viewBox="0 0 70 70" fill="none" xmlns="http://www.w3.org/2000/svg">
  <path d="M37.1465 32.248L37.1465 33.7305Q35.1055 35.6426 33.6768 36.8135Q32.248 37.9844 30.8301 38.9189Q29.4121 39.8535 28.4775 40.251Q27.543 40.6484 26.877 40.6484Q25.2871 40.6484 24.2773 39.4668Q23.2676 38.2852 23.2676 36.416Q23.2676 34.2676 24.1377 32.1621Q25.0078 30.0566 26.6191 27.8115Q28.2305 25.5664 30.6582 22.7734Q32.4629 20.7109 32.4629 20.4531Q32.4629 20.3027 32.3555 20.1953Q32.248 20.0879 32.1191 20.0879Q31.7109 20.0879 29.6055 21.8926Q27.5 23.6973 24.2021 27.1992Q20.9043 30.7012 17.0801 35.5352Q16.8652 35.793 15.7158 37.2861Q14.5664 38.7793 14.0938 39.2305Q13.6211 39.6816 13.2773 39.6816Q12.6758 39.6816 12.2354 38.4678Q11.7949 37.2539 11.7949 35.8789Q11.7949 35.041 12.3428 34.0742Q12.8906 33.1074 14.7275 30.6045Q16.5645 28.1016 17.7676 26.3828Q18.9707 24.6641 20.4102 22.2148Q21.4199 20.5176 21.9033 19.5078Q22.3867 18.498 22.3867 17.7246Q22.3867 17.0586 22 17.0586Q21.1836 17.0586 18.9277 19.2393Q16.6719 21.4199 13.3525 25.7168Q10.0332 30.0137 6.42383 35.6641Q5.24219 37.5977 4.74805 38.2637Q4.25391 38.9297 3.65234 38.9297Q2.90039 38.9297 2.24512 37.3291Q1.58984 35.7285 1.58984 34.7402Q1.58984 34.418 1.84766 34.0313Q4.68359 30.25 6.50977 27.6074Q8.33594 24.9648 9.75391 22.5908Q11.1719 20.2168 11.8164 18.6807Q12.4609 17.1445 12.4609 16.2637Q12.4609 15.3398 11.623 15.3398Q10.9355 15.3398 9.28125 16.2207Q7.62695 17.1016 5.10254 18.627Q2.57812 20.1523 1.05273 20.958Q-0.472656 21.7637 -1.22461 21.7637Q-1.93359 21.7637 -1.93359 20.9688Q-1.93359 20.5176 -1.63281 18.8955Q-1.33203 17.2734 -1.00977 16.6074Q-0.558594 15.748 1.2998 14.3301Q3.1582 12.9121 3.35156 12.9121Q3.52344 12.9121 3.52344 13.0625Q3.52344 13.1484 3.35156 13.3203Q2.4707 14.0293 2.04102 14.4805Q1.61133 14.9316 1.50391 15.4688Q5.43555 13.1055 8.54004 11.8701Q11.6445 10.6348 12.8477 10.6348Q13.4492 10.6348 13.9863 11.4404Q14.5234 12.2461 14.8994 13.3096Q15.2754 14.373 15.2754 14.6738Q15.2754 15.7695 14.7168 17.2627Q14.1582 18.7559 13.2021 20.7324Q12.2461 22.709 10.8281 25.6738Q11.9453 24.2344 12.9551 23.0098Q13.9648 21.7852 14.9639 20.625Q15.9629 19.4648 16.9941 18.2832Q18.3906 16.6719 20.1309 15.2002Q21.8711 13.7285 23.3857 12.7939Q24.9004 11.8594 25.4375 11.8594Q26.1895 11.8594 26.7803 12.6865Q27.3711 13.5137 27.3711 14.459Q27.3711 15.082 26.5547 16.8438Q25.7383 18.6055 24.1699 21.3555Q22.6016 24.1055 20.0234 28.4453Q22.4727 25.8457 25.1152 23.0957Q27.7578 20.3457 29.0469 19.0781Q30.3359 17.8105 31.1953 17.1445Q32.377 16.2422 33.5693 15.2002Q34.7617 14.1582 35.4492 13.5566Q36.1367 12.9551 36.6738 12.6328Q37.2109 12.3105 37.6621 12.3105Q38.2207 12.3105 39.0693 13.5996Q39.918 14.8887 39.918 15.2539Q39.918 15.7051 39.4131 16.3281Q38.9082 16.9512 37.3184 18.6484Q34.3965 21.7852 32.248 24.9756Q30.0996 28.166 28.9932 30.7979Q27.8867 33.4297 27.8867 34.9551Q27.8867 35.9004 28.2412 36.3301Q28.5957 36.7598 29.3477 36.7598Q30.0352 36.7598 30.626 36.502Q31.2168 36.2441 31.9365 35.7715Q32.6562 35.2988 33.3008 34.8691Q34.2031 34.332 35.0732 33.7197Q35.9434 33.1074 36.4268 32.7529Q36.9102 32.3984 37.1465 32.248ZM59.2324 32.8926Q58.6953 31.9043 57.6211 31.1094Q56.5469 30.3145 55.2041 29.8311Q53.8613 29.3477 52.4004 29.1113Q48.0605 28.4668 44.3008 26.2969Q43.9785 26.125 43.6133 25.5664Q43.248 25.0078 43.248 24.4922Q43.248 22.6016 43.8818 20.7002Q44.5156 18.7988 45.5039 17.7246Q47.0938 15.9414 51.2295 14.6094Q55.3652 13.2773 60.543 13.2773Q63.6367 13.2773 65.3232 13.75Q67.0098 14.2227 67.0098 15.2109Q67.0098 16.8223 66.5693 17.7031Q66.1289 18.584 65.624 18.874Q65.1191 19.1641 63.8516 19.6582Q62.498 20.1309 61.499 20.6465Q60.5 21.1621 59.791 21.6348Q59.082 22.1074 58.9102 22.1074Q58.6953 22.1074 58.6953 21.9355Q58.6953 21.5703 59.458 20.8291Q60.2207 20.0879 61.3379 19.5293Q62.5195 18.9063 62.5195 18.7344Q62.5195 18.4551 61.209 18.4551Q57.2344 18.4551 53.8613 19.1641Q50.4883 19.873 48.5439 21.0332Q46.5996 22.1934 46.5996 23.3965Q46.5996 24.1484 47.4053 24.46Q48.2109 24.7715 50.9609 25.502Q53.7109 26.2324 55.8809 27.1777Q58.9961 28.5098 60.5 29.9492Q62.0039 31.3887 62.0039 33.1719Q62.0039 34.3965 61.4131 35.6318Q60.8223 36.8672 59.6836 37.8984Q58.5449 38.9297 57.0625 39.5957Q55.7949 40.1328 53.8721 40.6055Q51.9492 41.0781 49.7041 41.3467Q47.459 41.6152 45.418 41.6152Q41.6582 41.6152 39.3701 40.9063Q37.082 40.1973 37.082 38.7578Q37.082 38.1133 37.8555 36.749Q38.6289 35.3848 39.6816 34.9121Q40.6055 34.5469 41.4648 34.4932Q42.3242 34.4395 42.3242 34.6973Q42.3242 34.7617 42.2598 34.8262Q42.1953 34.8906 42.1094 34.9336Q42.0234 34.9766 41.9375 35.0195Q41.5078 35.1914 41.2393 35.2881Q40.9707 35.3848 40.8096 35.4814Q40.6484 35.5781 40.6484 35.75Q40.6484 36.2012 45.0957 36.2012Q48.9629 36.2012 51.4336 35.9219Q53.9043 35.6426 55.7949 34.9121Q57.6855 34.1816 59.2324 32.8926Z" transform="translate(0.5 10.516)" fill="#FFFFFF" clip-path="url(#clip_path_1)" />
</svg>
